<?xml version="1.0" encoding="utf-8"?>
<!-- Generator: Adobe Illustrator 19.1.0, SVG Export Plug-In . SVG Version: 6.00 Build 0)  -->
<svg version="1.1" id="Layer_1" xmlns="http://www.w3.org/2000/svg" xmlns:xlink="http://www.w3.org/1999/xlink" x="0px" y="0px"
	 viewBox="0 0 187 191" style="enable-background:new 0 0 187 191;" xml:space="preserve">
<style type="text/css">
	.st0{fill-rule:evenodd;clip-rule:evenodd;fill:#6D6E71;}
</style>
<g>
	<g>
		<path class="st0" d="M0.3,95.8c0-34.1,17.7-63.9,44.2-80.7c4.6-2.1,5.1,1.4,5.1,1.9c0,0.4,0,106.9,0,106.9c0,3.2,1.9,5.1,4.6,5.1
			h8.5c3,0,4.7-1.8,4.7-4.9V63.7c0-7.2,6.3-13.3,14.2-13.3c8,0,14.3,6,14.3,13.3c0,0,0,54.6,0,54.7c0.2,5.5-2.1,21.5,19.9,28.6
			c12.6,3.2,20.7,8.1,19.6,19.4c-2,15.3-13.3,19.5-21.4,21.8c-6.6,1.5-13.5,2.3-20.6,2.3C42,190.6,0.3,148.1,0.3,95.8z"/>
		<path class="st0" d="M154.3,166.9c0.1-0.3,11.2-24.6-17.5-29.3c-13-2.1-21.3-7.2-22.5-14.6c-1-6.4,5.2-11.7,12.1-11.2
			c6.4,0.5,12.7,6,14.7,8.3c4.4,5.1,9.9-1.4,9.9-5.3v-4.6c0-3.7-2.3-6.9-5.5-7.8c-4.4-1.2-9.1-2.6-14.5-2.4
			c-8.6,0.3-13.2,3.2-14.3,3c-1.7,0.1-2.5-0.5-2.8-4V67.8c0-14.9-7.1-32.6-23.6-32.6c-4.4,0-10.1,0.6-13.1,3.9
			c-3.7,2.2-9.2,3.1-9.2-2.7V8.1c0.3-3.4,2.9-4.7,4.2-5.2c6.9-1.6,14-2.5,21.4-2.5c51.4,0,93.1,42.4,93.1,94.8
			C186.7,121.9,175.7,148.2,154.3,166.9z"/>
	</g>
</g>
</svg>
